<?xml version="1.0" standalone="no"?>
<!DOCTYPE svg PUBLIC "-//W3C//DTD SVG 20010904//EN"
 "http://www.w3.org/TR/2001/REC-SVG-20010904/DTD/svg10.dtd">
<svg version="1.0" xmlns="http://www.w3.org/2000/svg"
 width="197.000000pt" height="255.000000pt" viewBox="0 0 197.000000 255.000000"
 preserveAspectRatio="xMidYMid meet">

<g transform="translate(0.000000,255.000000) scale(0.100000,-0.100000)"
fill="#000000" stroke="none">
<path d="M213 2418 c-50 -24 -52 -43 -50 -468 2 -425 2 -426 54 -449 15 -7
128 -11 309 -11 l286 0 29 29 29 29 0 412 0 412 -29 29 -29 29 -289 -1 c-181
0 -296 -4 -310 -11z m618 -27 l29 -29 0 -402 0 -402 -29 -29 -29 -29 -287 0
-286 0 -24 25 -25 24 0 406 c0 268 4 413 11 426 6 11 20 24 32 29 12 5 147 9
300 9 l279 1 29 -29z"/>
<path d="M343 2347 c-29 -42 -30 -77 -3 -77 11 0 20 -4 20 -10 0 -5 5 -10 10
-10 6 0 10 6 10 14 0 9 7 12 20 9 16 -4 20 0 20 18 0 21 -38 89 -50 89 -3 0
-15 -15 -27 -33z"/>
<path d="M282 2317 c-2 -64 -21 -84 -48 -51 -15 18 -15 18 -10 1 3 -10 6 -21
6 -23 0 -2 11 -4 25 -4 32 0 37 13 32 81 l-3 54 -2 -58z"/>
<path d="M290 2154 c0 -16 5 -36 10 -44 6 -10 7 -2 3 25 -7 49 -13 58 -13 19z"/>
<path d="M330 2176 c0 -2 7 -7 16 -10 8 -3 12 -2 9 4 -6 10 -25 14 -25 6z"/>
<path d="M418 2162 c-30 -4 -39 -22 -11 -22 15 0 15 -2 -1 -19 -10 -11 -15
-24 -12 -30 4 -5 2 -12 -4 -16 -6 -4 -8 -10 -6 -14 3 -4 -1 -8 -9 -8 -8 0 -12
4 -9 8 7 12 -14 21 -34 15 -18 -6 -29 -56 -12 -56 5 0 7 8 3 18 -5 14 -4 15 8
4 12 -11 12 -15 -2 -25 -18 -14 -9 -57 13 -57 9 0 9 3 0 12 -7 7 -12 18 -12
25 0 19 31 16 46 -4 13 -17 15 -17 34 6 11 13 20 31 20 42 0 10 5 21 10 24 6
4 10 -10 10 -33 0 -33 4 -41 23 -46 35 -9 47 -7 47 8 0 8 11 17 25 20 14 4 23
11 20 16 -3 6 1 10 9 10 10 0 16 9 16 25 0 20 8 29 33 40 17 8 26 14 19 15 -7
0 -27 -8 -45 -17 -18 -9 -39 -18 -47 -19 -8 -2 -20 -11 -27 -20 -10 -14 -13
-14 -13 -3 1 21 22 45 48 54 l24 7 -29 15 c-34 18 -98 29 -135 25z m36 -46
c-7 -19 -30 -21 -40 -4 -5 7 -2 9 9 5 9 -3 18 1 21 10 4 9 9 14 11 11 3 -3 3
-13 -1 -22z m51 -6 c3 -6 -4 -10 -17 -10 -18 0 -20 2 -8 10 19 12 18 12 25 0z
m75 -47 c0 -1 -8 -7 -18 -12 -13 -7 -19 -6 -19 2 0 7 9 13 19 13 10 0 18 -1
18 -3z"/>
<path d="M648 2143 c24 -5 27 -18 11 -60 -8 -21 -7 -25 1 -17 7 7 13 27 13 45
2 30 -1 34 -23 35 -22 1 -22 0 -2 -3z"/>
<path d="M349 2131 c12 -8 13 -12 1 -25 -11 -14 -10 -16 5 -10 12 5 16 4 11
-4 -3 -6 -2 -13 2 -16 11 -6 9 34 -1 52 -5 6 -14 12 -20 12 -8 0 -7 -4 2 -9z"/>
<path d="M635 2040 c-3 -5 -1 -10 4 -10 6 0 11 5 11 10 0 6 -2 10 -4 10 -3 0
-8 -4 -11 -10z"/>
<path d="M618 2018 c12 -14 11 -22 -4 -47 -17 -28 -21 -30 -59 -24 -22 3 -44
11 -48 17 -6 7 -7 4 -3 -7 3 -10 6 -23 6 -28 0 -5 12 -9 26 -9 16 0 23 4 18
12 -4 7 -3 8 5 4 16 -10 4 -26 -20 -26 -29 0 -18 -24 12 -28 19 -2 21 -1 9 8
-12 9 -10 10 9 8 14 -2 25 -10 27 -21 1 -11 0 -16 -3 -13 -4 3 -15 -1 -25 -11
-14 -13 -18 -13 -18 -2 0 8 -10 1 -23 -15 -20 -25 -28 -28 -57 -23 -26 6 -30
5 -21 -6 6 -8 7 -18 3 -23 -4 -4 0 -4 8 2 21 16 59 23 62 13 2 -4 18 -9 36
-11 17 -1 32 -6 32 -10 0 -4 11 -15 24 -23 20 -13 32 -14 64 -6 22 6 46 19 53
28 8 9 9 14 2 10 -9 -5 -9 0 0 24 12 29 12 30 18 7 5 -20 9 -16 32 32 15 30
27 69 27 85 0 28 -2 27 -31 -24 l-31 -54 -13 29 c-6 16 -31 46 -53 66 -23 21
-42 42 -42 47 0 5 -8 15 -17 22 -16 13 -17 12 -5 -3z m72 -109 c-6 -10 -11
-33 -11 -51 l-2 -33 -4 30 c-3 17 -10 36 -16 43 -8 10 -7 16 3 22 12 7 11 13
-5 31 -20 22 -20 22 12 -1 26 -18 30 -27 23 -41z"/>
<path d="M548 1993 c7 -3 16 -2 19 1 4 3 -2 6 -13 5 -11 0 -14 -3 -6 -6z"/>
<path d="M581 1974 c0 -11 3 -14 6 -6 3 7 2 16 -1 19 -3 4 -6 -2 -5 -13z"/>
<path d="M356 1951 c-3 -5 1 -11 9 -15 8 -3 15 -1 15 4 0 13 -18 22 -24 11z"/>
<path d="M408 1948 c5 -5 16 -8 23 -6 8 3 3 7 -10 11 -17 4 -21 3 -13 -5z"/>
<path d="M425 1920 c26 -11 35 -12 35 -2 0 4 -12 8 -27 9 -24 1 -25 1 -8 -7z"/>
<path d="M470 1920 c0 -5 5 -10 10 -10 6 0 10 5 10 10 0 6 -4 10 -10 10 -5 0
-10 -4 -10 -10z"/>
<path d="M356 1887 c-13 -18 -16 -36 -12 -55 4 -15 7 -38 7 -52 l0 -25 11 28
c7 21 16 27 39 27 16 0 29 5 29 11 0 7 9 9 22 6 20 -6 78 19 78 33 0 16 -14
18 -35 4 -22 -14 -55 -10 -55 7 0 5 -9 9 -20 9 -21 0 -28 -24 -10 -35 6 -3 10
-11 10 -18 0 -22 -25 13 -35 51 l-11 37 -18 -28z"/>
<path d="M420 1750 c-13 -8 -12 -10 3 -10 9 0 17 5 17 10 0 12 -1 12 -20 0z"/>
<path d="M575 1751 c-6 -5 -21 -11 -35 -14 l-25 -4 26 -2 c15 0 32 6 39 14 14
16 10 21 -5 6z"/>
<path d="M747 1674 c-11 -11 -8 -124 2 -124 5 0 9 19 9 43 -1 67 1 77 17 77 7
0 19 -8 25 -17 10 -16 10 -16 8 2 -3 20 -46 33 -61 19z"/>
<path d="M633 1649 c5 -17 3 -18 -9 -8 -11 9 -18 9 -26 1 -13 -13 -4 -49 21
-82 18 -22 22 -23 35 -10 29 29 46 73 34 87 -6 8 -17 12 -25 9 -7 -3 -13 1
-13 9 0 8 -5 15 -11 15 -7 0 -9 -9 -6 -21z"/>
<path d="M1080 2417 c-49 -25 -50 -32 -48 -470 l3 -409 28 -24 28 -24 284 0
c183 0 293 4 308 11 56 25 57 33 57 458 0 419 -1 431 -51 457 -38 19 -571 20
-609 1z m594 -7 c55 -20 56 -33 54 -464 l-3 -395 -23 -23 c-22 -23 -26 -23
-311 -26 l-289 -3 -28 25 -29 24 -3 407 -3 406 30 29 29 30 276 0 c151 0 286
-4 300 -10z"/>
<path d="M1140 2315 c-5 -54 -7 -60 -27 -59 -12 0 -20 -3 -17 -8 8 -13 44 -9
50 6 3 7 4 38 2 67 l-4 54 -4 -60z"/>
<path d="M1190 2357 c0 -6 12 -30 26 -55 l26 -44 24 38 c37 61 33 72 -26 72
-28 0 -50 -5 -50 -11z"/>
<path d="M1385 2161 c3 -6 0 -11 -7 -11 -7 0 -2 -7 10 -16 13 -9 27 -26 32
-38 7 -16 9 -17 9 -4 1 10 -9 26 -21 38 -37 35 6 25 47 -11 19 -17 35 -27 35
-22 0 6 -8 17 -18 26 -22 20 -96 52 -87 38z"/>
<path d="M1452 2157 c14 -7 35 -19 45 -27 11 -8 6 -3 -9 13 -16 15 -36 27 -46
26 -12 0 -9 -4 10 -12z"/>
<path d="M1229 2082 c-24 -16 -53 -39 -64 -52 -11 -13 2 -7 30 15 28 21 64 44
80 51 17 7 23 13 14 14 -8 0 -35 -13 -60 -28z"/>
<path d="M1365 2090 c10 -11 20 -20 23 -20 3 0 -3 9 -13 20 -10 11 -20 20 -23
20 -3 0 3 -9 13 -20z"/>
<path d="M1600 2076 c0 -3 9 -10 20 -16 11 -6 20 -8 20 -6 0 3 -9 10 -20 16
-11 6 -20 8 -20 6z"/>
<path d="M1540 1980 c0 -33 2 -35 29 -18 23 14 16 48 -10 48 -14 0 -19 -7 -19
-30z"/>
<path d="M1079 1963 c-13 -16 -12 -17 4 -4 9 7 17 15 17 17 0 8 -8 3 -21 -13z"/>
<path d="M1664 1953 c5 -32 -7 -46 -17 -20 -3 6 -6 3 -6 -8 -1 -12 -6 -26 -13
-33 -7 -7 -8 -12 -2 -12 15 0 54 44 54 61 0 8 -5 21 -11 29 -8 11 -9 7 -5 -17z"/>
<path d="M1440 1938 c0 -18 18 -34 28 -24 3 4 -2 14 -11 23 -16 16 -17 16 -17
1z"/>
<path d="M1351 1875 c-1 -37 -26 -75 -49 -76 -9 -1 -4 -4 12 -8 18 -4 30 -13
32 -24 4 -27 8 -28 22 -7 10 16 10 20 -1 20 -27 0 -37 21 -21 46 9 12 14 35
11 51 l-4 28 -2 -30z"/>
<path d="M1080 1881 c0 -6 4 -13 10 -16 6 -3 7 1 4 9 -7 18 -14 21 -14 7z"/>
<path d="M1518 1883 c6 -2 18 -2 25 0 6 3 1 5 -13 5 -14 0 -19 -2 -12 -5z"/>
<path d="M1565 1880 c-4 -6 6 -10 22 -10 22 0 25 2 13 10 -19 12 -27 12 -35 0z"/>
<path d="M1144 1808 l-19 -23 23 19 c21 18 27 26 19 26 -2 0 -12 -10 -23 -22z"/>
<path d="M1428 1793 c7 -3 16 -2 19 1 4 3 -2 6 -13 5 -11 0 -14 -3 -6 -6z"/>
<path d="M1495 1760 c3 -5 8 -10 11 -10 2 0 4 5 4 10 0 6 -5 10 -11 10 -5 0
-7 -4 -4 -10z"/>
<path d="M1616 1665 c-3 -9 -5 -40 -5 -68 l2 -52 6 57 c7 66 15 77 43 59 17
-10 19 -10 16 1 -7 20 -54 22 -62 3z"/>
<path d="M1497 1613 c-18 -34 -23 -53 -17 -63 8 -12 13 -13 29 -3 13 8 22 9
26 3 3 -6 13 -10 21 -10 21 0 17 40 -9 83 l-23 38 -27 -48z"/>
<path d="M198 1201 l-33 -29 -2 -399 c-3 -434 0 -453 52 -473 15 -6 147 -10
311 -10 l286 0 29 29 29 29 0 411 0 410 -24 28 -24 28 -295 3 -296 3 -33 -30z
m638 -14 l24 -28 0 -404 0 -403 -31 -26 -31 -26 -284 0 -285 0 -24 25 -25 24
0 409 c0 311 3 412 13 424 28 36 48 38 335 35 l284 -2 24 -28z"/>
<path d="M270 1116 c0 -60 -15 -80 -37 -50 -14 19 -15 19 -11 -1 4 -22 26 -30
47 -16 16 10 24 121 10 121 -5 0 -9 -24 -9 -54z"/>
<path d="M331 1140 l-22 -31 24 -28 23 -28 17 30 c17 28 17 31 -1 58 l-18 29
-23 -30z"/>
<path d="M570 1003 c8 -3 24 -10 35 -15 20 -9 20 -9 1 6 -11 9 -27 16 -35 15
-14 0 -14 -1 -1 -6z"/>
<path d="M531 904 c0 -11 3 -14 6 -6 3 7 2 16 -1 19 -3 4 -6 -2 -5 -13z"/>
<path d="M651 884 c0 -11 3 -14 6 -6 3 7 2 16 -1 19 -3 4 -6 -2 -5 -13z"/>
<path d="M577 876 c-4 -10 -13 -13 -24 -9 -15 5 -16 4 -5 -8 10 -11 15 -10 29
4 9 9 14 19 11 22 -3 3 -8 -1 -11 -9z"/>
<path d="M568 823 c6 -2 18 -2 25 0 6 3 1 5 -13 5 -14 0 -19 -2 -12 -5z"/>
<path d="M431 584 c0 -11 3 -14 6 -6 3 7 2 16 -1 19 -3 4 -6 -2 -5 -13z"/>
<path d="M500 570 c0 -6 3 -9 8 -9 20 3 33 -2 27 -11 -4 -6 -12 -7 -18 -3 -7
4 -6 -1 2 -11 8 -9 17 -13 20 -8 3 5 14 11 23 13 10 2 14 9 10 15 -9 14 -72
26 -72 14z"/>
<path d="M453 527 c-16 -9 -20 -16 -13 -27 6 -10 10 -11 10 -3 0 7 7 10 15 7
11 -5 13 -2 8 12 -5 13 -3 15 7 9 9 -5 11 -4 6 3 -8 14 -6 14 -33 -1z"/>
<path d="M646 426 c-18 -34 -18 -35 2 -61 l20 -25 20 27 c19 26 19 27 0 60
-11 18 -21 33 -22 33 -1 0 -10 -15 -20 -34z"/>
<path d="M748 399 c-1 -34 0 -63 5 -66 4 -2 7 23 7 56 0 53 2 61 19 61 11 0
22 -6 24 -12 3 -8 6 -6 6 5 1 12 -7 17 -28 17 -29 0 -29 -1 -33 -61z"/>
<path d="M1079 1215 c-48 -26 -50 -42 -47 -474 l3 -403 28 -24 28 -24 290 0
c180 0 298 4 310 10 47 26 49 44 49 459 0 419 -1 431 -51 457 -41 20 -572 20
-610 -1z m595 -5 c56 -21 57 -34 54 -466 l-3 -396 -28 -24 -28 -24 -285 0
-286 0 -29 29 -29 29 0 399 c0 430 0 432 54 453 29 12 549 12 580 0z"/>
<path d="M1140 1125 c0 -60 -16 -79 -47 -54 -14 12 -16 12 -12 0 7 -21 34 -35
53 -28 12 5 16 20 16 72 0 36 -2 65 -5 65 -3 0 -5 -25 -5 -55z"/>
<path d="M1225 1160 c-4 -6 -4 -14 -1 -17 3 -3 -5 -13 -17 -23 -18 -15 -20
-20 -8 -34 8 -9 20 -15 28 -12 8 3 13 -2 13 -14 0 -11 5 -20 11 -20 6 0 8 9 4
20 -6 18 -3 20 18 15 31 -8 43 18 19 41 -9 10 -17 24 -17 33 0 19 -40 27 -50
11z"/>
<path d="M1117 796 c-4 -10 -5 -21 -2 -24 9 -9 17 6 13 25 -3 17 -4 17 -11 -1z"/>
<path d="M1354 781 c7 -11 46 -35 46 -28 0 3 -12 12 -26 22 -15 9 -23 12 -20
6z"/>
<path d="M1458 773 c7 -3 16 -2 19 1 4 3 -2 6 -13 5 -11 0 -14 -3 -6 -6z"/>
<path d="M1110 716 c0 -8 5 -18 10 -21 6 -3 10 1 10 9 0 8 -4 18 -10 21 -5 3
-10 -1 -10 -9z"/>
<path d="M1538 723 c6 -2 18 -2 25 0 6 3 1 5 -13 5 -14 0 -19 -2 -12 -5z"/>
<path d="M1150 696 c0 -8 4 -17 9 -20 5 -4 7 3 4 14 -6 23 -13 26 -13 6z"/>
<path d="M1380 625 c0 -8 2 -15 4 -15 2 0 6 7 10 15 3 8 1 15 -4 15 -6 0 -10
-7 -10 -15z"/>
<path d="M1100 600 c6 -11 18 -20 27 -20 14 0 14 2 -2 20 -10 11 -22 20 -27
20 -5 0 -4 -9 2 -20z"/>
<path d="M1417 583 c6 -14 14 -16 37 -7 26 10 18 21 -13 20 -18 -1 -27 -5 -24
-13z"/>
<path d="M1210 580 c-8 -5 -18 -6 -24 -3 -5 3 -6 1 -2 -5 9 -15 33 -15 41 -1
10 15 2 20 -15 9z"/>
<path d="M1340 580 c0 -5 9 -10 20 -10 11 0 20 5 20 10 0 6 -9 10 -20 10 -11
0 -20 -4 -20 -10z"/>
<path d="M1632 458 c-7 -7 -11 -37 -11 -72 l2 -61 6 57 c7 66 15 77 41 60 11
-7 20 -9 20 -4 0 12 -22 32 -35 32 -6 0 -16 -5 -23 -12z"/>
<path d="M1517 438 c5 -18 3 -21 -7 -11 -7 6 -19 9 -26 6 -18 -7 -18 -40 0
-50 8 -4 15 -17 18 -28 2 -12 11 -20 23 -20 12 0 21 8 23 20 3 11 10 24 18 28
8 4 14 17 14 29 0 16 -5 19 -26 15 -21 -4 -25 -1 -21 14 3 12 0 19 -8 19 -9 0
-11 -8 -8 -22z"/>
</g>
</svg>
